<svg xmlns="http://www.w3.org/2000/svg" width="1200" height="800" viewBox="0 0 1200 800" role="img" aria-label="Report cover">
  <defs>
    <linearGradient id="bg" x1="0" y1="0" x2="1" y2="1">
      <stop offset="0" stop-color="#244228"/>
      <stop offset="1" stop-color="#2C6B57"/>
    </linearGradient>
  </defs>
  <rect width="1200" height="800" fill="url(#bg)"/>
  <rect x="150" y="120" width="900" height="560" rx="30" fill="#F4F4EE" opacity="0.96"/>
  <rect x="210" y="190" width="780" height="70" rx="16" fill="#DCDEC5"/>
  <rect x="240" y="212" width="240" height="26" rx="13" fill="#2F5232" opacity="0.85"/>
  <rect x="520" y="212" width="180" height="26" rx="13" fill="#8ACA74" opacity="0.85"/>
  <g transform="translate(210 290)">
    <rect width="510" height="320" rx="22" fill="#ffffff" stroke="rgba(11,15,12,0.08)" stroke-width="6"/>
    <path d="M60 260 L140 190 L230 215 L320 150 L420 175" fill="none" stroke="#2F5232" stroke-width="16" stroke-linecap="round" stroke-linejoin="round"/>
    <path d="M60 260 L140 230 L230 255 L320 210 L420 240" fill="none" stroke="#8ACA74" stroke-width="16" stroke-linecap="round" stroke-linejoin="round" opacity="0.9"/>
    <circle cx="140" cy="190" r="12" fill="#2F5232"/>
    <circle cx="320" cy="150" r="12" fill="#2F5232"/>
  </g>
  <g transform="translate(740 290)">
    <rect width="250" height="320" rx="22" fill="#ffffff" stroke="rgba(11,15,12,0.08)" stroke-width="6"/>
    <rect x="34" y="40" width="180" height="16" rx="8" fill="rgba(11,15,12,0.14)"/>
    <rect x="34" y="80" width="140" height="16" rx="8" fill="rgba(11,15,12,0.12)"/>
    <rect x="34" y="140" width="190" height="18" rx="9" fill="#DCDEC5"/>
    <rect x="34" y="176" width="160" height="18" rx="9" fill="#DCDEC5" opacity="0.9"/>
    <rect x="34" y="212" width="200" height="18" rx="9" fill="#DCDEC5" opacity="0.8"/>
  </g>
</svg>

